<svg xmlns="http://www.w3.org/2000/svg" viewBox="0 0 215.5 144.5"><defs><style>.cls-1{fill:#ffcd00;}</style></defs><title>Asset 3</title><g id="Layer_2" data-name="Layer 2"><g id="Layer_1-2" data-name="Layer 1"><path class="cls-1" d="M45,0l4.63,13.49A20,20,0,0,0,68.55,27h147L203.44,8.91A20,20,0,0,0,186.8,0Z"/><path class="cls-1" d="M72,117.5,31.93,13.32A20,20,0,0,0,13.26.5H0l54,144H90L130.73,35.88l-13.46-.07A20,20,0,0,0,98.49,48.63Z"/><path class="cls-1" d="M215.5,44.5l-58.17.4a20,20,0,0,0-19,14.32L134.5,72l54.95.29A20,20,0,0,0,207.55,61Z"/><path class="cls-1" d="M135.5,81h24.21A20,20,0,0,1,176,89.38L215,144H190.29A20,20,0,0,1,174,135.62Z"/></g></g></svg>